<svg width="16" height="16" viewBox="0 0 16 16" fill="none" xmlns="http://www.w3.org/2000/svg">
<g opacity="0.4">
<path fill-rule="evenodd" clip-rule="evenodd" d="M3.19998 4C2.77563 4 2.36866 4.16857 2.0686 4.46863C1.76855 4.76869 1.59998 5.17565 1.59998 5.6V12C1.59998 12.4243 1.76855 12.8313 2.0686 13.1314C2.36866 13.4314 2.77563 13.6 3.19998 13.6H12.8C13.2243 13.6 13.6313 13.4314 13.9313 13.1314C14.2314 12.8313 14.4 12.4243 14.4 12V5.6C14.4 5.17565 14.2314 4.76869 13.9313 4.46863C13.6313 4.16857 13.2243 4 12.8 4H11.5312C11.319 3.99995 11.1156 3.91564 10.9656 3.7656L10.0688 2.8688C9.76879 2.56872 9.36189 2.40009 8.93758 2.4H7.06238C6.63806 2.40009 6.23116 2.56872 5.93118 2.8688L5.03438 3.7656C4.88438 3.91564 4.68093 3.99995 4.46878 4H3.19998ZM7.99998 11.2C8.31515 11.2 8.62724 11.1379 8.91842 11.0173C9.2096 10.8967 9.47417 10.7199 9.69703 10.4971C9.91989 10.2742 10.0967 10.0096 10.2173 9.71844C10.3379 9.42726 10.4 9.11517 10.4 8.8C10.4 8.48483 10.3379 8.17274 10.2173 7.88156C10.0967 7.59038 9.91989 7.3258 9.69703 7.10294C9.47417 6.88008 9.2096 6.7033 8.91842 6.58269C8.62724 6.46208 8.31515 6.4 7.99998 6.4C7.36346 6.4 6.75301 6.65286 6.30292 7.10294C5.85283 7.55303 5.59998 8.16348 5.59998 8.8C5.59998 9.43652 5.85283 10.047 6.30292 10.4971C6.75301 10.9471 7.36346 11.2 7.99998 11.2Z" fill="black"/>
</g>
</svg>
