<svg width="23" height="23" viewBox="0 0 23 23" fill="none" xmlns="http://www.w3.org/2000/svg">
<path fill-rule="evenodd" clip-rule="evenodd" d="M11.5 20.7C13.94 20.7 16.28 19.7307 18.0054 18.0054C19.7307 16.2801 20.7 13.94 20.7 11.5C20.7 9.06001 19.7307 6.71996 18.0054 4.99462C16.28 3.26929 13.94 2.3 11.5 2.3C9.06 2.3 6.71994 3.26929 4.99461 4.99462C3.26927 6.71996 2.29999 9.06001 2.29999 11.5C2.29999 13.94 3.26927 16.2801 4.99461 18.0054C6.71994 19.7307 9.06 20.7 11.5 20.7ZM10.9882 8.2432C10.815 8.12765 10.6137 8.06129 10.4058 8.05119C10.1978 8.04108 9.99103 8.08763 9.80746 8.18585C9.62388 8.28407 9.47042 8.43028 9.36343 8.60889C9.25645 8.7875 9.19996 8.9918 9.19999 9.2V13.8C9.19996 14.0082 9.25645 14.2125 9.36343 14.3911C9.47042 14.5697 9.62388 14.7159 9.80746 14.8142C9.99103 14.9124 10.1978 14.9589 10.4058 14.9488C10.6137 14.9387 10.815 14.8724 10.9882 14.7568L14.4382 12.4568C14.5957 12.3518 14.7249 12.2095 14.8142 12.0426C14.9035 11.8757 14.9502 11.6893 14.9502 11.5C14.9502 11.3107 14.9035 11.1243 14.8142 10.9574C14.7249 10.7905 14.5957 10.6482 14.4382 10.5432L10.9882 8.2432Z" fill="white"/>
</svg>
